<?xml version="1.0" encoding="UTF-8"?>
<svg version="1.1" xmlns="http://www.w3.org/2000/svg" width="253" height="263">
<path d="M0 0 C4.73842127 2.23758782 7.24667744 5.12389584 9 10 C8.91244373 14.46537 7.65961871 16.56465917 5 20 C4.28566879 22.64934822 4.28566879 22.64934822 4 25 C7.10630075 27.70712659 9.1827969 28.34099247 13.25 28.6875 C22.55466446 30.02490263 31.53607179 34.71168647 39.0703125 40.26171875 C42.59827742 42.35497794 44.4602287 42.27895686 48.5 41.9375 C55.59552386 41.71954876 55.59552386 41.71954876 58.5625 44.125 C60.99342561 46.99224559 63.01276711 49.80838355 65 53 C65.58265625 53.72058594 66.1653125 54.44117188 66.765625 55.18359375 C71.86826326 61.66560374 73.09871195 66.79280679 73 75 C73.77859375 75.11988281 74.5571875 75.23976563 75.359375 75.36328125 C79.04727577 76.2525236 80.02361439 77.82366598 82 81 C83.28226279 85.53723758 83.10123137 89.42565429 82 94 C80.33480307 96.38863724 79.05947931 97.78233504 76.14379883 98.38134766 C73.9155308 98.53946121 71.73319077 98.54549794 69.5 98.5 C68.74074219 98.51546875 67.98148437 98.5309375 67.19921875 98.546875 C63.55495692 98.52134602 61.57671934 98.40151346 58.53125 96.28125 C57 94 57 94 56 89 C50.06 89.495 50.06 89.495 44 90 C45.23035145 94.06962402 46.78976481 97.38325151 49 101 C49 101.66 49 102.32 49 103 C55.70737396 102.53110218 55.70737396 102.53110218 62.1875 100.875 C66.12083262 99.65129652 68.03939839 99.72455202 72 101 C78.33401392 106.07346181 82.3614966 110.67236586 83.5625 118.8125 C83.48098146 123.57680554 80.88904693 126.10843008 77.7265625 129.43359375 C74.42334218 132.43040676 71.86411102 132.13465511 67.5 132.125 C66.3346875 132.12757813 65.169375 132.13015625 63.96875 132.1328125 C61 132 61 132 59 131 C59.2265625 129.09765625 59.2265625 129.09765625 60 127 C61.9609375 126.05859375 61.9609375 126.05859375 64.375 125.4375 C67.75231978 124.55191615 69.84134712 123.82599667 72 121 C72.52071133 116.98308406 72.41602033 114.74883659 70.4375 111.1875 C67.4524704 108.50862728 64.88570366 107.82197577 61 107 C60.505 108.485 60.505 108.485 60 110 C57.13168843 111.1630056 54.04472289 111.49636163 51 112 C50.17371094 112.18304688 49.34742187 112.36609375 48.49609375 112.5546875 C43.58714648 113.43046213 40.38467703 113.18198773 36 110.6875 C32.75262671 108.20789447 31.44170321 106.45117275 30.6875 102.4375 C30.59082031 101.57898438 30.49414062 100.72046875 30.39453125 99.8359375 C29.93844016 96.55750054 28.95549316 93.68887541 27.875 90.5625 C25.95185033 84.56512214 25.5486648 79.25600735 26 73 C12.44718155 68.61749397 12.44718155 68.61749397 -1 70 C-9.13240046 69.93744307 -18.15407531 68.60019412 -24.5 63.25 C-26.72221882 61.45958674 -27.57730509 60.98666578 -30.4765625 61.078125 C-32.21278169 61.35469089 -33.94848438 61.6345234 -35.68359375 61.91796875 C-38 62 -38 62 -41.1875 59.8125 C-43 57 -43 57 -43.125 54.9375 C-41.18478019 51.59601033 -38.84115437 49.6059984 -35.13671875 48.38671875 C-30.24271943 47.44593053 -27.80294422 48.39458524 -23.71875 51.05859375 C-20.71312773 52.70485504 -18.31714412 52.48249369 -15 52 C-11.72689447 50.09643013 -11.72689447 50.09643013 -9 48 C-8.34 48 -7.68 48 -7 48 C-5.88117309 44.70536861 -6.08087417 43.04661189 -7.46875 39.8828125 C-7.79230469 39.11066406 -8.11585937 38.33851562 -8.44921875 37.54296875 C-9.14688491 35.9375585 -9.84738454 34.33337648 -10.55078125 32.73046875 C-12.4777249 28.11655188 -13.67708592 24.95865664 -12 20 C-10.66015625 17.91796875 -10.66015625 17.91796875 -9.0625 16.1875 C-8.53785156 15.60355469 -8.01320312 15.01960938 -7.47265625 14.41796875 C-6 13 -6 13 -4 12 C-4.268125 11.13375 -4.53625 10.2675 -4.8125 9.375 C-5.01839588 5.66887413 -4.82153412 5.29015261 -2.5625 2.625 C-1.716875 1.75875 -0.87125 0.8925 0 0 Z " fill="#DCE6F2" transform="translate(43,43)"/>
<path d="M0 0 C3.85809481 1.5252933 6.3995491 3.58481464 8.6875 7.0625 C10.06621402 15.79435544 7.27460734 25.66145286 2.6875 33.0625 C2.6875 37.93595523 5.80472775 42.2882346 8.6875 46.0625 C13.38458975 49.19389317 18.85992434 48.60108584 24.3125 47.5625 C25.09625 47.3975 25.88 47.2325 26.6875 47.0625 C33.48707992 46.78784448 39.55605905 47.85530171 46.15234375 49.43554688 C50.44656578 50.38238871 50.44656578 50.38238871 54.45849609 49.03198242 C55.91370094 47.75907349 57.30422422 46.41322811 58.6875 45.0625 C62.0625 44.75 62.0625 44.75 64.6875 45.0625 C64.74199838 46.79130982 64.78051688 48.52062712 64.8125 50.25 C64.83570313 51.21292969 64.85890625 52.17585938 64.8828125 53.16796875 C64.67789201 56.20489039 63.87098441 58.28397346 62.6875 61.0625 C61.85613525 61.04678955 61.02477051 61.0310791 60.16821289 61.01489258 C57.04274864 60.96334167 53.91750325 60.92594645 50.79174805 60.89770508 C48.79005424 60.87544542 46.78855725 60.83729854 44.78710938 60.79882812 C37.38905003 60.74292339 31.53446163 61.19895183 24.6875 64.0625 C25.41730979 66.52439169 26.1525966 68.98431356 26.8984375 71.44140625 C27.51697586 73.49605596 28.10760163 75.55911205 28.6875 77.625 C29.0175 78.429375 29.3475 79.23375 29.6875 80.0625 C31.1725 80.5575 31.1725 80.5575 32.6875 81.0625 C33.68251712 84.22281005 33.92998564 85.57070882 32.4375 88.59765625 C31.86 89.43167969 31.2825 90.26570313 30.6875 91.125 C28.24574405 94.36665182 28.24574405 94.36665182 27.94921875 98.1875 C28.19285156 98.80625 28.43648438 99.425 28.6875 100.0625 C29.5 103 29.5 103 29.6875 106.0625 C27.75 108.9375 27.75 108.9375 25.6875 111.0625 C20.94529349 110.46972419 16.69456312 108.62772805 12.6875 106.0625 C10.6875 103.0625 10.6875 103.0625 10.890625 100.765625 C11.8132427 97.63596103 13.10063052 94.78811271 14.4375 91.8125 C16.55051452 86.43557834 17.11649754 83.31137312 14.91015625 77.96484375 C12.76922921 74.6337528 10.88328146 72.45990576 7.06640625 71.19140625 C6.13699219 71.00449219 5.20757812 70.81757813 4.25 70.625 C-0.69163427 69.3732067 -3.21878009 68.30531588 -6.3125 64.0625 C-7.90883199 61.31092776 -9.42274903 58.53319387 -10.890625 55.7109375 C-12.03249834 53.58404155 -13.20693222 51.69213631 -14.625 49.75 C-16.49731639 46.76816278 -16.83189078 44.5124177 -17.3125 41.0625 C-18.16972656 40.95292969 -19.02695313 40.84335938 -19.91015625 40.73046875 C-33.90302165 38.79008268 -33.90302165 38.79008268 -39.1875 34.5625 C-41.60886134 31.33401822 -41.50494361 28.00525981 -41.5625 24.125 C-41.60117188 22.56458984 -41.60117188 22.56458984 -41.640625 20.97265625 C-41.26309803 17.62435161 -40.77763448 16.34522495 -38.3125 14.0625 C-33.23907999 12.31279238 -28.14829543 11.58655304 -22.9375 12.9375 C-18.34511833 16.65514231 -14.83875968 20.65047645 -13.5625 26.5 C-13.43875 27.7684375 -13.43875 27.7684375 -13.3125 29.0625 C-12.6525 29.3925 -11.9925 29.7225 -11.3125 30.0625 C-11.065 29.485 -10.8175 28.9075 -10.5625 28.3125 C-9.3125 26.0625 -9.3125 26.0625 -7.23828125 24.51953125 C-4.27898505 20.74387748 -4.99597147 17.13863053 -5.25 12.5 C-5.33551365 10.79100342 -5.40770486 9.08127417 -5.46484375 7.37109375 C-5.50601318 6.61626709 -5.54718262 5.86144043 -5.58959961 5.08374023 C-5.3125 3.0625 -5.3125 3.0625 -3.94750977 1.29711914 C-2.3125 0.0625 -2.3125 0.0625 0 0 Z " fill="#DCE6F2" transform="translate(187.3125,113.9375)"/>
<path d="M0 0 C1.9066112 3.81322241 1.45225405 7.51670046 0.24609375 11.47265625 C-1.64126516 16.37978941 -3.6548844 20.92314036 -7 25 C-8.32860925 25.35169068 -9.66158328 25.68770276 -11 26 C-11.26683594 26.71542969 -11.53367187 27.43085938 -11.80859375 28.16796875 C-13.26439245 31.62847385 -15.40115585 34.05126662 -17.9375 36.75 C-18.42694092 37.27440674 -18.91638184 37.79881348 -19.4206543 38.33911133 C-28.16986775 47.53384118 -38.27185198 54.37305542 -49 61 C-49.89976562 61.58007812 -50.79953125 62.16015625 -51.7265625 62.7578125 C-60.34800834 68.20437669 -68.9780643 71.11930077 -79.0546875 72.5625 C-81.78500686 72.96806468 -84.4307861 73.53177859 -87.125 74.125 C-92.26933676 75.06926152 -97.34603557 75.24972542 -102.5625 75.3125 C-103.76060303 75.33884521 -103.76060303 75.33884521 -104.98291016 75.36572266 C-107.25390625 75.36328125 -107.25390625 75.36328125 -111 75 C-111.66 74.01 -112.32 73.02 -113 72 C-107.41834132 69.64628851 -102.13771539 68.39362669 -96.16796875 67.41601562 C-82.18867572 65.11929904 -69.78116421 61.052152 -57 55 C-56.13697266 54.59563721 -55.27394531 54.19127441 -54.38476562 53.7746582 C-49.29799296 51.32237967 -44.91358823 48.70813288 -40.5 45.1875 C-39.95593506 44.75445557 -39.41187012 44.32141113 -38.85131836 43.87524414 C-37.75243785 42.99996836 -36.65593524 42.12169759 -35.56201172 41.24023438 C-34.11803194 40.09371714 -32.6403069 38.99004914 -31.16015625 37.890625 C-25.37626388 33.54183375 -21.63411355 29.22693382 -18 23 C-17.49855469 22.22914063 -16.99710937 21.45828125 -16.48046875 20.6640625 C-12.79748833 14.90182985 -10.33605884 9.04000809 -8.078125 2.58984375 C-6.25762832 -1.78330589 -4.15169458 -1.17099078 0 0 Z " fill="#DCE6F1" transform="translate(247,188)"/>
<path d="M0 0 C-0.33 1.32 -0.66 2.64 -1 4 C-2.2375 4.31710938 -3.475 4.63421875 -4.75 4.9609375 C-30.16434309 11.70777836 -54.89707168 21.4326678 -74 40 C-75.35115986 41.08708118 -76.70524143 42.17054289 -78.0625 43.25 C-86.61016553 50.75276052 -92.18196644 61.69216641 -97.63818359 71.52685547 C-100.67884573 76.89294858 -100.67884573 76.89294858 -104 78 C-102.47457721 57.40679229 -87.10384506 38.15560972 -72 25 C-68.53292379 22.27586869 -64.86738151 20.09585231 -61 18 C-60.15904785 17.54061035 -59.3180957 17.0812207 -58.45166016 16.60791016 C-55.47611349 14.99330775 -52.49073352 13.39878754 -49.5 11.8125 C-48.53860107 11.30074219 -47.57720215 10.78898438 -46.58666992 10.26171875 C-34.94624432 4.20516973 -13.04975265 -6.52487632 0 0 Z " fill="#DDE7F3" transform="translate(112,1)"/>
<path d="M0 0 C0.66 0.33 1.32 0.66 2 1 C0.06891122 2.50894379 -1.86906006 4.00711534 -3.8125 5.5 C-4.35970703 5.92925781 -4.90691406 6.35851563 -5.47070312 6.80078125 C-9.66015625 10 -9.66015625 10 -13 10 C-4.07749077 1.91881919 -4.07749077 1.91881919 0 0 Z " fill="#D3DDE8" transform="translate(57,32)"/>
<path d="M0 0 C1.9375 0.625 1.9375 0.625 4 2 C5.0625 4.8125 5.0625 4.8125 5 8 C2.5625 10.875 2.5625 10.875 0 13 C0.33 12.443125 0.66 11.88625 1 11.3125 C2.16594721 8.61624708 2.29134297 6.91342967 2 4 C1.08431094 1.74867483 1.08431094 1.74867483 0 0 Z " fill="#AFB7C0" transform="translate(47,49)"/>
<path d="M0 0 C0.66 0.33 1.32 0.66 2 1 C1.01 1 0.02 1 -1 1 C-0.67 0.67 -0.34 0.34 0 0 Z " fill="#DEE8F4" transform="translate(60,30)"/>
<path d="" fill="#010101" transform="translate(0,0)"/>
</svg>
