<?xml version="1.0" encoding="UTF-8" standalone="no"?>
<!-- Created with Inkscape (http://www.inkscape.org/) -->

<svg
   width="174.49806mm"
   height="138.19376mm"
   viewBox="0 0 174.49806 138.19376"
   version="1.1"
   id="svg1"
   xml:space="preserve"
   xmlns="http://www.w3.org/2000/svg"
   xmlns:svg="http://www.w3.org/2000/svg"><defs
     id="defs1" /><g
     id="layer1"
     transform="translate(-13.512164,-30.324583)"><path
       id="path1"
       style="fill:#ff6600"
       d="m 16.47393,30.331482 c -0.0794,0.04145 -0.29233,0.272264 -0.710551,0.774113 -1.273339,1.528079 -2.988774,4.625381 -1.910995,9.521383 1.953378,9.224092 8.266628,6.047119 14.879196,7.010424 0.448956,0.05631 13.334077,7.664485 12.556607,13.624502 -5.987492,-4.499519 -14.740873,-2.056227 -17.228056,-4.825164 -1.060062,-1.180148 -1.470466,-4.099142 -1.582536,-3.452065 -0.77379,4.467768 -0.759035,7.618893 1.92935,11.582093 4.617111,6.806515 13.457582,1.771604 17.271673,10.406586 2.318835,5.249769 3.312125,1.85622 -3.725026,-0.07099 -4.058392,-1.111441 -9.355769,-1.176223 -10.519085,2.033823 -1.436917,3.965018 -0.337963,1.569775 1.039729,0.779281 6.347832,-3.642267 3.183775,3.478332 10.967994,9.253516 13.362369,9.913665 -3.418194,21.881746 10.38258,34.043086 4.082116,3.59719 16.723633,8.58599 26.646491,5.33164 5.305999,-1.74018 8.596335,5.26333 7.497217,4.67258 -2.831595,-1.52191 -5.167339,1.80173 -8.295618,0.80512 -1.758029,-0.56009 -1.88624,-3.32611 -3.473173,-3.67884 -1.87701,-0.41721 -0.08951,-0.16857 0.234611,0.79685 0.438732,1.30681 -1.128419,1.95402 1.730644,5.39915 2.982122,3.32308 1.210003,0.66687 -1.702222,0.87798 -3.576211,0.0353 -3.58438,2.85828 -6.201185,1.73253 -5.513662,-2.37197 -4.926909,-2.9594 -1.935112,0.44623 4.417305,3.91108 5.830246,2.46033 7.905304,2.98113 3.792096,0.95175 4.333282,4.8292 4.334102,5.11907 8e-5,0.0302 -1.579951,-0.55602 -5.116483,-0.16278 -4.2064,0.88931 -6.822446,3.44698 -7.986076,5.85236 -0.16788,0.34708 -0.168127,0.34696 0.387573,-0.0217 2.53136,-1.67942 5.222988,-0.52675 9.552905,2.43861 3.877816,2.65573 5.794044,-3.73349 12.371492,-1.28127 0.815885,0.30418 1.238463,0.42135 1.666565,0.54467 -0.341899,-0.0301 -0.725616,-0.0395 -1.146183,0.0258 -10.412335,1.6173 -0.394707,9.21214 -0.553824,11.07919 -0.293146,3.43971 -5.824152,5.75137 0.395788,3.88191 5.297433,-1.59219 3.951043,-5.79289 7.271659,-8.69822 2.037501,-1.78269 4.842104,-2.63572 7.864635,-2.68356 13.85687,-0.21932 9.80564,8.89778 29.52792,9.37928 2.9836,-0.13742 5.8381,-1.00189 8.41292,-2.51303 2.70504,-1.66802 6.34257,-5.86504 13.35112,-10.74663 5.35761,-3.73169 15.97437,-6.23963 19.68821,-4.65088 1.00678,0.43069 4.6351,2.59051 4.93664,2.93884 4.00715,2.84445 7.84663,6.57972 9.76737,11.16779 0.33984,0.8436 0.63832,1.55165 0.66352,1.57355 0.1474,0.12812 0.39061,-1.29936 0.38861,-2.28255 -0.007,-3.98309 -3.23422,-10.26925 -6.62957,-15.51636 -1.26725,-8.98431 -1.66742,-12.87398 -6.73339,-15.8798 -17.76393,-6.68379 -10.05,-7.51663 -18.86138,-12.27998 -1.70084,-1.442 -1.38319,-2.55143 -3.64379,-4.18048 -1.59497,-1.14938 -2.49792,-1.4092 -1.41852,-4.90254 -4.38633,3.01741 1.95787,6.29801 -0.57735,10.2522 -2.31079,3.60415 2.61166,6.36943 -2.80197,4.91523 -5.70484,-1.65107 -0.54973,-9.02318 -4.89224,-18.1056 -11.26856,-23.568359 -20.74229,-13.765611 -24.23404,-39.910115 -0.82133,-6.149752 0.0964,2.063155 -3.87056,3.718754 -2.6433,1.103162 -2.86402,1.964586 -3.48416,4.402085 -0.22234,0.873898 -0.1776,0.896277 -1.07177,-0.534851 C 107.2516,69.250277 102.44826,64.779682 93.906673,63.573392 74.353502,60.811986 78.291528,51.752966 71.56143,50.480008 c -7.577145,-1.020731 -0.504151,0.107252 -0.01816,2.752106 0.945312,5.144602 -1.837467,4.203119 -0.680916,7.179197 -5.465353,-0.553108 -6.069287,-4.72776 -10.105843,-8.462016 -5.64285,-5.20265 -7.191832,-5.72022 -14.704012,-5.469951 -5.278265,0.175866 -6.231875,1.023016 -15.241964,0.495061 -5.51678,-0.323259 -5.783981,-0.348488 -6.675561,-0.63097 -1.79234,-0.567876 -3.983031,-5.719485 -4.874121,-7.055383 -2.59263,-3.886795 -3.667603,-3.508071 -3.717603,-6.407361 0.20783,-1.091998 1.168904,-2.673549 0.930693,-2.549198 z m 42.917794,39.647709 c -0.05693,-0.06121 0.364782,0.07354 0.936377,0.371554 2.36999,1.235659 3.884744,2.306568 5.261694,3.720703 2.14244,2.200295 2.458347,2.863034 2.610177,5.472017 0.20588,3.537785 2.188133,5.814796 5.645133,6.485392 0.4873,0.09453 1.581286,0.290106 2.431376,0.434082 2.79315,0.473064 4.572822,1.584309 5.565552,3.475757 0.67669,1.28929 0.676294,1.288563 1.291394,3.137793 0.34202,1.028251 0.6946,1.798275 2.058789,2.565218 1.65071,0.928025 2.962381,2.026336 1.893941,0.586528 -1.312,-1.601474 -1.718144,-3.504917 -1.203544,-5.637382 1.421582,-4.224997 -0.943908,-7.42337 -4.665348,-9.458338 -0.77523,-0.399756 -0.872735,-0.608526 -0.272335,-0.583426 1.626336,0.06798 2.865617,0.09338 5.367114,0.589111 3.695436,0.732342 6.777088,1.495141 7.789706,5.481836 1.40625,5.536432 0.455228,5.575615 2.04587,9.657808 0.38896,0.998214 2.162886,2.599605 2.956925,2.795178 2.766805,0.68147 1.264615,0.270949 0.545186,-0.740006 -1.70505,-2.395971 -1.860358,-4.537706 -1.511018,-5.902482 0.25293,-0.98812 0.397527,-1.124389 0.513147,-0.483692 0.38153,2.114096 2.0172,4.057143 4.92735,6.147946 3.07775,2.211222 4.50871,1.59935 6.52311,3.449922 1.95637,1.7972 1.22051,5.43944 0.57154,6.55257 -0.5989,1.02724 -1.68777,3.68737 -1.84381,4.50463 -0.64131,3.35885 -0.22707,4.38633 3.02462,7.50342 1.45465,1.39444 2.67657,2.37865 3.30781,5.42293 0.45559,2.19716 -0.30959,-0.17795 -1.28416,-1.24799 -1.99651,-2.19209 -3.56247,-2.75702 -6.42235,-3.8685 -4.69915,-1.82629 -5.22842,-1.54771 -8.567949,-4.61935 -1.512022,-1.39073 -1.293764,-2.23148 -1.695504,-5.94073 -0.38357,-3.54144 -2.529313,-6.05318 -5.926253,-6.93704 -0.550524,-0.21216 -3.27243,-0.50422 -4.334619,-0.43357 -0.425899,0.0283 1.450721,1.09727 2.337841,2.50528 1.59052,2.52445 1.211933,4.62969 0.472323,6.28798 -0.83775,1.87831 -1.163441,2.01255 -2.025199,4.3155 -1.941061,-3.41949 -6.368908,-3.8587 -9.631454,-3.87159 -2.415237,0.1111 -4.901635,0.60139 -7.278625,0.27905 -2.326854,-0.19608 -4.449611,-1.04825 -6.413045,-2.83084 -1.931893,-1.75396 -2.904348,-3.84108 -3.010669,-7.66671 -0.108563,-3.906299 0.07769,-6.893474 0.279569,-6.207892 0.678076,2.30284 2.415679,4.468125 3.132625,5.373832 3.543071,3.63225 9.37973,3.61402 13.504602,3.84266 1.618016,0.0951 3.114996,-0.0273 4.473629,1.91823 0.370812,0.531 0.453318,0.43233 0.110588,-0.56793 -0.5185,-1.51323 -2.031934,-2.43579 -4.923214,-3.00188 -3.35174,-0.65626 -4.660005,-1.08411 -5.210535,-5.006412 -0.500097,-5.571552 -1.228454,-6.776331 -5.960359,-9.420614 -5.578338,-3.176508 0.518795,-8.977311 -4.966622,-15.746842 -0.968686,-1.195451 -1.630125,-1.84222 -2.431376,-2.703711 z m 13.028662,0.285771 c 0.127393,0.0099 0.224727,0.286404 0.283703,0.838191 0.41351,3.868701 2.682723,6.603262 5.745903,6.925159 0.84882,0.0892 -0.123546,0.784542 -1.567346,1.120862 -3.95895,0.922207 -6.411834,-2.196881 -5.312854,-6.756177 0.34245,-1.420709 0.638272,-2.144507 0.850594,-2.128035 z m 15.912207,4.725809 c 0.20414,-0.0096 1.156324,0.52424 2.66702,0.68678 1.062989,0.114369 2.079492,-0.25163 4.240052,-0.22841 1.833839,0.01971 13.529595,0.780314 5.990845,11.047388 -0.74639,1.016511 -2.267513,2.27036 -1.940963,1.599902 1.594873,-3.274725 0.191961,-7.850267 -0.784965,-8.863024 -2.809244,-2.91228 -5.378458,-2.068866 -8.037753,-2.978113 -1.367182,-0.467457 -2.134236,-1.264523 -2.134236,-1.264523 z M 31.96229,91.384137 c -0.242831,0.06756 0.563729,0.58277 1.167887,1.142049 2.209299,2.045186 1.129632,4.51159 -0.419644,7.260778 -1.125826,1.997776 -0.442769,4.915066 0.543826,6.427326 1.976726,2.5949 4.811864,4.16011 4.264186,3.05493 -1.580423,-3.18921 1.185539,-6.85672 1.301362,-9.22794 0.289042,-5.917495 -4.346632,-8.657143 -6.857616,-8.657143 z m 60.136998,14.522573 c 1.178253,1.08682 2.255581,1.50629 2.478402,4.79764 0.511776,7.55961 1.893294,8.25081 9.17257,12.18686 0.98757,0.51582 1.02651,0.55099 0.69608,0.6165 -2.72418,0.40397 -8.066718,-0.92867 -9.474876,-1.79524 -5.470714,-3.36653 -3.274298,-7.1394 -2.652551,-8.96431 0.559504,-1.64222 1.083994,-2.54785 0.798401,-4.37286 -0.397978,-1.26599 -1.244915,-2.63021 -1.018026,-2.46859 z m -30.088603,6.31331 c 0,-0.10935 0.673946,0.29886 1.265556,0.76637 3.377385,2.43826 8.093609,2.60137 12.13466,2.06757 1.68363,-0.37901 5.259418,0.0497 6.121073,1.37769 0.37762,0.58201 0.218386,0.0416 -1.406115,-0.0129 -2.294119,-0.077 -3.34248,0.36957 -5.30562,1.05162 -0.85575,0.29732 -1.937277,0.63536 -2.403987,0.75137 v 5.2e-4 c -6.602115,1.63921 -10.405567,-5.99554 -10.405567,-6.0017 z m 110.837835,20.06545 c 3.12523,2.46944 1.63122,2.6034 2.77897,3.60833 2.05219,1.79681 2.38615,3.61255 2.39494,4.7224 0.0364,4.60108 1.21905,0.74471 -3.04475,-1.40564 -3.41271,-1.72112 1.53376,-3.0391 -2.12916,-6.92509 z" /></g></svg>
