<?xml version="1.0" encoding="UTF-8" ?>
<!DOCTYPE svg PUBLIC "-//W3C//DTD SVG 1.1//EN" "http://www.w3.org/Graphics/SVG/1.1/DTD/svg11.dtd">
<svg width="513pt" height="109.5pt" viewBox="0 0 547 117" version="1.1" xmlns="http://www.w3.org/2000/svg">
<g id="#91c83eff">
<path fill="#91c83e" opacity="1.00" d=" M 69.44 1.75 C 79.96 -0.63 90.71 3.71 98.89 10.18 C 110.95 19.69 118.73 33.44 124.68 47.35 C 128.16 56.18 131.35 65.17 133.44 74.44 C 133.93 76.19 134.22 79.21 131.73 79.45 C 117.14 80.37 102.37 79.66 88.02 76.72 C 74.40 73.53 60.55 67.51 51.83 56.12 C 46.14 48.40 42.35 38.75 43.73 29.03 C 45.03 21.08 48.90 13.31 55.26 8.21 C 59.38 4.94 64.37 2.98 69.44 1.75 Z" />
</g>
<g id="#0284ccff">
<path fill="#0284cc" opacity="1.00" d=" M 3.68 40.74 C 9.16 25.44 25.13 15.72 41.06 15.51 C 38.91 21.79 36.12 28.14 36.76 34.96 C 37.97 48.83 45.77 61.85 56.89 70.12 C 71.32 80.65 89.40 84.55 106.91 85.94 C 109.15 86.39 112.56 85.65 113.46 88.43 C 115.79 95.32 118.01 102.25 119.84 109.29 C 120.34 111.28 121.18 113.43 120.31 115.44 C 115.90 116.19 111.39 115.68 106.94 115.77 C 86.62 115.05 65.92 113.48 46.76 106.18 C 31.16 100.51 16.13 90.93 7.71 76.22 C 1.41 65.73 -1.22 52.33 3.68 40.74 Z" />
</g>
<g id="#00324dff">
<path fill="#00324d" opacity="1.00" d=" M 161.49 21.19 C 170.35 21.05 179.22 21.09 188.08 21.14 C 193.88 21.15 199.83 22.77 204.19 26.73 C 214.05 35.43 212.97 53.71 201.37 60.43 C 193.71 65.51 184.12 64.27 175.41 64.48 C 175.34 70.69 175.44 76.91 175.32 83.12 C 170.74 83.01 166.10 83.62 161.57 82.81 C 161.36 62.28 161.55 41.73 161.49 21.19 M 175.42 33.49 C 175.36 39.76 175.33 46.04 175.46 52.32 C 180.91 52.01 186.75 53.31 191.91 51.07 C 198.08 48.39 198.87 38.32 192.79 35.14 C 187.49 32.26 181.18 33.80 175.42 33.49 Z" />
<path fill="#00324d" opacity="1.00" d=" M 324.67 21.16 C 329.14 21.15 333.61 20.96 338.08 21.16 C 339.49 20.91 340.09 22.36 340.78 23.26 C 345.73 31.23 350.58 39.27 355.68 47.15 C 361.02 38.44 366.42 29.76 371.86 21.11 C 376.77 21.10 381.69 21.07 386.60 21.20 C 386.54 41.85 386.81 62.51 386.46 83.16 C 382.04 83.21 377.63 83.17 373.22 83.09 C 373.03 69.70 373.28 56.31 373.08 42.92 C 367.00 51.56 361.60 60.68 355.40 69.25 C 349.68 60.58 344.07 51.84 338.20 43.28 C 337.89 56.51 338.65 69.80 337.83 82.99 C 333.46 83.37 329.06 83.15 324.68 83.11 C 324.57 62.46 324.59 41.81 324.67 21.16 Z" />
<path fill="#00324d" opacity="1.00" d=" M 220.37 38.82 C 228.02 35.21 236.75 34.43 245.06 35.59 C 250.50 36.31 255.79 39.69 257.95 44.86 C 260.85 51.17 260.01 58.27 260.12 65.00 C 259.99 70.95 260.42 76.92 259.89 82.86 C 256.94 83.30 253.95 83.25 250.98 83.22 C 249.67 82.95 247.79 83.70 246.96 82.31 C 246.93 81.35 246.86 79.42 246.83 78.45 C 240.43 84.48 230.14 86.08 222.55 81.37 C 214.14 76.45 213.97 62.42 222.26 57.31 C 229.73 52.81 239.01 53.59 247.10 55.78 C 246.89 52.94 246.44 49.73 243.63 48.25 C 237.43 44.48 230.09 47.49 223.63 48.78 C 222.23 45.57 221.42 42.15 220.37 38.82 M 231.29 64.22 C 227.83 66.74 228.79 72.96 233.03 74.05 C 237.18 75.03 242.34 74.77 245.34 71.33 C 247.42 69.42 246.85 66.33 247.29 63.82 C 242.16 62.26 236.04 60.97 231.29 64.22 Z" />
<path fill="#00324d" opacity="1.00" d=" M 402.91 38.81 C 411.31 34.94 421.00 34.16 430.00 36.09 C 437.59 37.94 442.40 45.53 442.52 53.09 C 442.58 63.11 442.65 73.14 442.45 83.16 C 438.10 83.21 433.76 83.16 429.42 83.08 C 429.41 81.49 429.41 79.90 429.42 78.30 C 422.86 84.78 411.79 86.16 404.16 80.78 C 398.36 76.77 397.43 68.35 400.20 62.27 C 402.81 57.24 408.58 54.83 413.96 54.24 C 419.25 53.54 424.55 54.54 429.70 55.74 C 429.26 52.63 428.52 49.04 425.28 47.70 C 419.11 45.05 412.28 47.13 406.20 49.02 C 404.94 45.67 403.85 42.26 402.91 38.81 M 415.91 63.06 C 413.70 63.68 412.09 65.72 411.77 67.96 C 411.15 71.10 413.90 74.27 417.05 74.36 C 420.70 74.81 424.99 74.52 427.61 71.59 C 429.69 69.58 429.53 66.51 429.82 63.86 C 425.37 62.44 420.44 61.38 415.91 63.06 Z" />
<path fill="#00324d" opacity="1.00" d=" M 506.30 38.83 C 513.92 35.20 522.65 34.45 530.94 35.58 C 536.22 36.26 541.31 39.43 543.64 44.31 C 545.40 47.57 545.94 51.32 545.86 54.99 C 545.83 64.37 545.86 73.75 545.83 83.13 C 541.49 83.18 537.15 83.18 532.81 83.14 C 532.82 81.54 532.85 79.95 532.90 78.36 C 529.72 80.89 526.18 83.27 522.06 83.82 C 515.46 84.96 507.63 82.85 503.99 76.85 C 501.54 72.28 501.57 66.47 503.85 61.84 C 506.51 57.08 512.06 54.97 517.20 54.27 C 522.58 53.43 527.97 54.58 533.23 55.66 C 532.61 52.76 532.11 49.23 529.03 47.89 C 522.89 44.97 515.84 47.02 509.73 49.05 C 508.36 45.72 507.19 42.31 506.30 38.83 M 517.80 63.82 C 513.88 66.07 514.50 72.83 518.95 74.05 C 523.12 75.03 528.30 74.77 531.30 71.31 C 533.13 69.29 532.92 66.40 533.32 63.89 C 528.35 62.34 522.58 61.06 517.80 63.82 Z" />
<path fill="#00324d" opacity="1.00" d=" M 265.85 35.73 C 270.60 35.57 275.35 35.60 280.10 35.65 C 283.59 46.27 287.24 56.84 290.72 67.46 C 294.57 57.02 297.75 46.32 301.03 35.68 C 305.72 35.59 310.40 35.57 315.09 35.72 C 309.24 52.20 302.85 68.49 296.77 84.89 C 294.99 89.48 292.51 94.54 287.66 96.48 C 281.61 98.90 274.87 97.27 269.32 94.35 C 270.81 91.12 272.26 87.87 273.79 84.66 C 275.82 85.31 277.83 86.21 279.99 86.35 C 281.98 86.50 283.14 84.62 284.52 83.53 C 278.21 67.63 271.90 51.73 265.85 35.73 Z" />
<path fill="#00324d" opacity="1.00" d=" M 448.29 35.68 C 452.99 35.60 457.70 35.62 462.41 35.60 C 466.03 46.24 469.51 56.94 473.19 67.57 C 476.82 56.97 480.07 46.25 483.57 35.61 C 488.20 35.61 492.84 35.60 497.47 35.70 C 492.17 50.81 486.21 65.69 480.71 80.74 C 478.70 85.70 477.17 91.32 472.85 94.85 C 466.61 99.41 458.08 97.80 451.70 94.37 C 453.13 91.13 454.59 87.90 456.13 84.71 C 458.64 85.37 461.27 86.92 463.90 86.06 C 465.14 85.40 467.11 84.18 466.37 82.51 C 460.50 66.84 453.96 51.42 448.29 35.68 Z" />
</g>
</svg>
